<?xml version="1.0" encoding="UTF-8" standalone="no"?>
<!-- Created with Inkscape (http://www.inkscape.org/) -->

<svg
   version="1.1"
   id="svg1"
   width="1024"
   height="1024"
   viewBox="0 0 1024 1024"
   sodipodi:docname="avatar.svg"
   inkscape:version="1.4 (e7c3feb100, 2024-10-09)"
   inkscape:export-filename="avatar.png"
   inkscape:export-xdpi="96"
   inkscape:export-ydpi="96"
   xmlns:inkscape="http://www.inkscape.org/namespaces/inkscape"
   xmlns:sodipodi="http://sodipodi.sourceforge.net/DTD/sodipodi-0.dtd"
   xmlns="http://www.w3.org/2000/svg"
   xmlns:svg="http://www.w3.org/2000/svg">
  <defs
     id="defs1" />
  <sodipodi:namedview
     id="namedview1"
     pagecolor="#ffffff"
     bordercolor="#000000"
     borderopacity="0.25"
     inkscape:showpageshadow="2"
     inkscape:pageopacity="0.0"
     inkscape:pagecheckerboard="0"
     inkscape:deskcolor="#d1d1d1"
     showguides="true"
     inkscape:zoom="0.5"
     inkscape:cx="-495"
     inkscape:cy="373"
     inkscape:window-width="2560"
     inkscape:window-height="1008"
     inkscape:window-x="0"
     inkscape:window-y="0"
     inkscape:window-maximized="1"
     inkscape:current-layer="g1"
     inkscape:export-bgcolor="#ffffffff">
    <sodipodi:guide
       position="166,460.28906"
       orientation="1,0"
       id="guide55"
       inkscape:locked="false" />
    <sodipodi:guide
       position="323.31905,963.60038"
       orientation="0,-1"
       id="guide56"
       inkscape:locked="false" />
    <sodipodi:guide
       position="843.18701,899.77246"
       orientation="1,0"
       id="guide57"
       inkscape:locked="false" />
    <sodipodi:guide
       position="509.64065,848.25634"
       orientation="1,0"
       id="guide58"
       inkscape:locked="false" />
    <sodipodi:guide
       position="477.23182,123.85825"
       orientation="0,-1"
       id="guide60"
       inkscape:locked="false" />
    <sodipodi:guide
       position="462.375,62.937502"
       orientation="0,-1"
       id="guide61"
       inkscape:locked="false" />
    <sodipodi:guide
       position="739.31778,260.95789"
       orientation="1,0"
       id="guide1"
       inkscape:locked="false" />
    <sodipodi:guide
       position="777.06739,354.84961"
       orientation="0,-1"
       id="guide2"
       inkscape:locked="false" />
  </sodipodi:namedview>
  <g
     inkscape:groupmode="layer"
     inkscape:label="Image"
     id="g1">
    <rect
       style="fill:#9cd8fd;fill-opacity:1;stroke:none;stroke-width:0.992057"
       id="rect61"
       width="227.21762"
       height="377.15308"
       x="616.00726"
       y="583.89343"
       ry="0" />
    <rect
       style="fill:#2ea6fd;stroke:none;stroke-width:0.5;fill-opacity:1;stroke-opacity:1"
       id="rect41"
       width="343.07852"
       height="72.801323"
       x="166.37407"
       y="60.876095" />
    <rect
       style="fill:#00214e;stroke:none;stroke-width:0.5;fill-opacity:1"
       id="rect42"
       width="71.317139"
       height="73.348717"
       x="771.89941"
       y="60.735294" />
    <path
       style="fill:#9cd6fe;stroke:none;stroke-width:0.5;fill-opacity:1"
       d="m 843.29412,135.84981 -333.55272,0.125 -0.125,51.01408 60.69649,0.125 V 164.84606 H 843.3598 Z"
       id="path42"
       sodipodi:nodetypes="ccccccc" />
    <path
       style="fill:#0b4072;stroke:none;stroke-width:0.5;fill-opacity:1"
       d="m 570.73207,164.80856 0.0352,22.31512 305.40427,0.64844 -0.0732,-23.08118 z"
       id="path43"
       sodipodi:nodetypes="ccccc" />
    <path
       style="fill:#9cd6fe;stroke:none;stroke-width:0.5;fill-opacity:1"
       d="m 166.06655,260.31441 v -73.17802 h 130.95016 c 0,0 -77.25606,2.26557 -130.95016,73.17802 z"
       id="path45" />
    <path
       style="fill:#00214e;stroke:none;stroke-width:0.5;fill-opacity:1"
       d="M 466.93473,349.1249 V 234.71343 c 0,0 -67.96721,-48.03016 -127.55179,-46.67082 -59.58459,1.35935 -57.31902,2.71869 -96.28689,15.40591 -38.96786,12.68721 -57.31901,38.74131 -61.17048,41.23344 -3.85148,2.49213 -14.04656,16.31213 -14.04656,16.31213 h 96.3713 l -17.58598,7.24983 c 0,0 -14.38639,7.02328 -23.10885,14.1032 -8.72246,7.07992 -15.29262,13.08369 -20.22024,18.18123 -4.92763,5.09754 -29.67817,41.65939 -29.67817,41.65939 l 24.35044,-26.11265 c 0,0 21.94743,-22.90863 46.13767,-36.68585 24.19024,-13.77722 46.77848,-21.94744 74.17272,-21.62704 27.39424,0.3204 56.39049,17.78223 78.49812,33.48186 22.10764,15.69962 30.91865,28.99624 37.96746,37.96745 7.04881,8.97122 21.62703,25.47184 21.62703,25.47184 L 395.85482,638.8786 H 509.57767 V 620.85607 H 407.86984 Z"
       id="path46"
       sodipodi:nodetypes="ccssscccssccsssscccccc" />
    <path
       style="fill:#2ea6fd;stroke:none;stroke-width:0.5;fill-opacity:1"
       d="m 262.18351,261.4472 h -96.11696 v 96.40016 l 21.29639,-29.79229 -13.65008,14.21647 c 0,0 21.57959,-34.09688 32.73754,-44.915 11.15795,-10.81811 23.54867,-23.89393 55.73311,-35.90934 z"
       id="path47" />
    <circle
       style="fill:#9cd6fe;stroke:none;stroke-width:0.5;fill-opacity:1"
       id="path50"
       cx="313.32883"
       cy="312.64917"
       r="55.733112" />
    <circle
       style="fill:#00214e;stroke:none;stroke-width:0.5;fill-opacity:1"
       id="path49"
       r="19.483934"
       cy="311.51639"
       cx="313.78195" />
    <path
       style="fill:#2ea6fd;fill-opacity:1;stroke:none;stroke-width:0.5"
       d="m 187.75469,327.76971 c 0,0 25.63204,30.43805 60.8761,41.33167 35.24405,10.89361 56.07009,12.49562 83.62453,9.93241 27.55444,-2.5632 55.10889,-14.41802 69.20651,-21.78723 14.09762,-7.36921 33.32165,-26.59324 33.32165,-26.59324 l 20.74593,24.27034 -42.21276,190.55819 V 364.93617 c 0,0 -6.42962,21.9194 -19.70463,40.53066 -5.63589,7.90139 -23.37182,23.95538 -30.11765,29.15645 -4.91307,3.788 -24.09078,19.00866 -59.75469,22.90864 -35.04244,3.83202 -82.85113,-20.74872 -100.28536,-40.69087 -17.29356,-19.78124 -20.39597,-48.45877 -20.39597,-48.45877 l 0.73139,-35.32596 z"
       id="path51"
       sodipodi:nodetypes="csssccccssssccc" />
    <path
       style="fill:#2ea6fd;stroke:none;stroke-width:0.5;fill-opacity:1"
       d="M 666.27136,229.45615 H 570.375 v 407.2935 h 42.20044 V 682.9375 H 569 c 0,0 -9.25,0.125 -23,6.75 -13.75,6.625 -24.06681,27.93749 -24.50875,29.35171 -0.44194,1.41421 -0.55375,1.83579 -0.55375,1.83579 l 58.3125,44.40625 v 39.75982 l -34.601,31.37786 h 71.726 V 777 c 0,0 1.00084,-66.35715 40.07009,-119.72648 C 711.69768,581.79745 788.5,583.5 788.5,583.5 h 55 V 354.2605 c 0,0 -0.67291,-4.94975 -6.24138,-15.99829 -5.56846,-11.04855 -6.01041,-9.63433 -6.01041,-9.63433 0,0 -10.78337,12.59534 -13.25825,14.45149 -2.47487,1.85616 -29.03557,24.08583 -54.84497,32.74788 -25.8094,8.66206 -49.67425,14.14214 -82.55472,9.36917 -32.88046,-4.77297 -64.16994,-25.27907 -72.12489,-30.40559 -7.95495,-5.12653 -29.91945,-26.47231 -29.91945,-26.47231 z"
       id="path62"
       sodipodi:nodetypes="ccccccssccccccscccscsssscc" />
    <path
       style="fill:#9cd8fd;stroke:none;stroke-width:0.5;fill-opacity:1"
       d="M 467.06383,350.27785 V 620.31407 H 408.35044 Z"
       id="path52" />
    <path
       style="fill:#9cd8fd;stroke:none;stroke-width:0.5;fill-opacity:1"
       d="m 166.00751,358.88861 v 181.67727 h 60.77641 c 0,0 -20.1636,-15.85902 -29.2259,-30.35869 -9.06229,-14.49967 -15.17934,-32.62426 -16.76524,-43.95213 -1.5859,-11.32787 -1.769,-24.98347 -1.6088,-41.8846 0.1602,-16.90112 3.60451,-55.90988 3.60451,-55.90988 l 0.8811,-35.00376 z"
       id="path53" />
    <path
       style="fill:#35a9fe;stroke:none;stroke-width:0.5;fill-opacity:1"
       d="m 166.06655,568.77227 v 331.11359 h 94.65936 V 568.77227 Z"
       id="path54" />
    <path
       style="fill:#00214e;stroke:none;stroke-width:0.5;fill-opacity:1"
       d="m 260.72308,568.68547 0.11328,331.22777 h 87.18898 c 0,0 -0.56961,-94.15597 -0.63281,-94.26547 -0.0632,-0.1095 -56.488,0.0449 -56.488,0.0449 l -0.16991,-236.95744 z"
       id="path55"
       sodipodi:nodetypes="cccsccc" />
    <rect
       style="fill:#2ea6fd;stroke:none;stroke-width:0.5;fill-opacity:1"
       id="rect58"
       width="17.137482"
       height="451.86285"
       x="509.61105"
       y="186.99738" />
    <path
       style="fill:#00214e;fill-opacity:1;stroke:none;stroke-width:0.5"
       d="m 843.18064,187.75895 v 166.98768 c 0,0 0.0451,-7.94679 -10.69499,-24.43938 -2.85191,-4.3794 -15.04641,-21.92587 -29.40874,-34.27324 C 760.38863,259.33467 740,259.75 740,259.75 c 0,0 26.625,13.125 31.5,45 4.875,31.875 -11.625,54.875 -26.25,64.875 -14.625,10 -58.47254,25.64769 -88.70136,-8.11666 -30.22881,-33.76435 -15.34074,-66.27452 -8.66205,-79.01918 4.81716,-9.19239 19.79899,-20.15254 19.79899,-20.15254 0,0 -24.56058,4.78838 -55.43558,31.03838 -30.875,26.25 -39.84706,44.71043 -39.84706,44.71043 0,0 12.99309,-23.95324 22.98097,-35.97406 9.98788,-12.02081 34.9134,-37.38827 60.89957,-45.87355 25.98617,-8.48528 43.39868,-12.99309 76.10237,-6.98268 32.70369,6.01041 50.20458,18.208 62.75572,29.34493 12.55115,11.13693 13.08148,11.66726 13.08148,11.66726 0,0 -8.30851,-35.53211 -56.03821,-55.86143 -47.72971,-20.32932 -85.7809,-4.81717 -85.7809,-4.81717 l -96.12232,-0.30936 v 407.64706 h 42.24963 v 45.96194 h -42.77996 c 0,0 -20.5061,0.70711 -33.4108,14.31891 -12.9047,13.61181 -15.20279,23.33453 -15.20279,23.33453 l 13.52341,-8.83884 76.89787,53.47495 H 400.39921 L 475.52931,715.41528 509.75,738.75 v -99.92322 h 17.04455 V 186.94135 Z"
       id="path58"
       sodipodi:nodetypes="ccsscsssscscsssscsccccccscccccccccc" />
    <circle
       style="fill:#ffffff;stroke:#000000;stroke-width:0.5;fill-opacity:1"
       id="path59"
       cx="667.75"
       cy="310"
       r="18.5" />
    <path
       style="fill:#9cd8fd;fill-opacity:1;stroke:none;stroke-width:0.5"
       d="m 598,298.625 c 0,0 14,-38.25 42.75,-56.25 28.75,-18 45.875,-17.25 53.625,-18.375 7.75,-1.125 48.11244,0.32322 75.86244,19.19822 27.75,18.875 34.86611,38.84597 36.24111,41.72097 1.375,2.875 2.03282,5.89017 2.03282,5.89017 0,0 -37.29299,-43.91692 -100.39678,-44.35676 C 649.58887,246.04467 613.60918,280.37777 598,298.625 Z"
       id="path60"
       sodipodi:nodetypes="csssscsc" />
    <rect
       style="fill:#9cd8fd;stroke:none;stroke-width:0.5;fill-opacity:1"
       id="rect60"
       width="285.91422"
       height="60.878662"
       x="166"
       y="900.12134" />
    <path
       style="fill:#00214e;fill-opacity:1;stroke:none;stroke-width:0.5"
       d="M 785.77241,584.0702 V 960.78134 H 509.47043 V 900.09375 H 641.25 c 0,0 34.92625,-0.39878 60.52835,-22.35977 10.16078,-8.71572 23.44429,-22.36375 28.96365,-39.69938 9.56013,-30.02715 8.53814,-77.18771 8.53814,-77.18771 l 0.0653,-91.92388 h 38.29528 V 584.25 Z"
       id="path61"
       sodipodi:nodetypes="cccccssccccc" />
    <path
       style="fill:#00214e;stroke:#000000;stroke-width:0.5;fill-opacity:1"
       d="m 432.3958,805.5714 h 149.55308 c 0,0 -3.35876,11.66726 -13.96536,19.79899 -10.6066,8.13173 -21.2132,11.66726 -21.2132,11.66726 h -72.832 c 0,0 -16.61701,-3.53553 -24.92552,-10.42983 -8.3085,-6.89429 -14.92811,-14.73337 -16.617,-21.03642 z"
       id="path63" />
    <path
       style="fill:#ffffff;stroke:none;stroke-width:0.5;fill-opacity:1"
       d="M 614.125,391.25 V 584.375 H 709.5 c 0,0 34.375,-3 54.125,-14 19.75,-11 41.41607,-29.79187 50.78523,-44.46433 9.36917,-14.67247 14.14214,-30.22882 16.26346,-39.24443 2.12132,-9.01561 3.53553,-20.85965 3.53553,-20.85965 V 390.6765 Z"
       id="path64" />
    <path
       style="fill:#00214e;fill-opacity:1;stroke-width:0.5"
       d="m 843.375,397.42973 c 0,0 20,-3.75 39.75,8.25 19.75,12 26,22.75 32.25,36 6.25,13.25 12,43.5 3.5,63.75 -8.5,20.25 -9.25,22.5 -20.25,33.75 -11,11.25 -27.75,18 -36.25,19 -8.5,1 -19.5,0.25 -19.5,0.25 z"
       id="path2" />
    <path
       style="fill:#00214e;fill-opacity:1;stroke-width:0.5"
       d="m 164.78116,472.55473 c 0,0 -20,-3.75 -39.75,8.25 -19.75,12 -26,22.75 -32.250001,36 -6.25,13.25 -12,43.5 -3.5,63.75 8.500001,20.25 9.250001,22.5 20.250001,33.75 11,11.25 27.75,18 36.25,19 8.5,1 19.5,0.25 19.5,0.25 z"
       id="path2-2" />
  </g>
</svg>
